<svg xmlns="http://www.w3.org/2000/svg" width="1000" height="300"><path d="M26.51 233.65L26.51 65.25L64.74 65.25L64.74 126.46L64.74 126.46Q70.71 120.94 80.76 116.85L80.76 116.85L80.76 116.85Q90.82 112.76 100.32 112.76L100.32 112.76L100.32 112.76Q120.21 112.76 128.61 123.81L128.61 123.81L128.61 123.81Q137.01 134.86 137.01 155.64L137.01 155.64L137.01 233.65L98.77 233.65L98.77 160.72L98.77 160.72Q98.77 153.65 94.91 150.33L94.91 150.33L94.91 150.33Q91.04 147.02 84.85 147.02L84.85 147.02L84.85 147.02Q79.33 147.02 74.13 149.23L74.13 149.23L74.13 149.23Q68.94 151.44 64.74 154.75L64.74 154.75L64.74 233.65L26.51 233.65ZM197.78 234.97L197.78 234.97Q176.57 234.97 165.96 221.16L165.96 221.16L165.96 221.16Q155.35 207.35 155.35 175.53L155.35 175.53L155.35 175.53Q155.35 152.76 159.44 139.17L159.44 139.17L159.44 139.17Q163.53 125.58 173.14 119.17L173.14 119.17L173.14 119.17Q182.75 112.76 199.99 112.76L199.99 112.76L199.99 112.76Q213.47 112.76 228.28 117.84L228.28 117.84L228.28 65.03L266.51 65.03L266.51 233.65L234.25 233.65L228.28 222.60L228.28 222.60Q221.87 228.12 213.92 231.55L213.92 231.55L213.92 231.55Q205.96 234.97 197.78 234.97L197.78 234.97ZM211.48 204.48L211.48 204.48Q220.32 204.48 228.28 198.95L228.28 198.95L228.28 145.47L228.28 145.47Q219.88 141.27 212.81 141.27L212.81 141.27L212.81 141.27Q205.30 141.27 201.32 143.81L201.32 143.81L201.32 143.81Q197.34 146.35 195.46 153.20L195.46 153.20L195.46 153.20Q193.58 160.06 193.58 173.54L193.58 173.54L193.58 173.54Q193.58 186.58 195.24 193.10L195.24 193.10L195.24 193.10Q196.90 199.61 200.66 202.05L200.66 202.05L200.66 202.05Q204.41 204.48 211.48 204.48L211.48 204.48ZM286.62 233.65L286.62 203.15L339.22 150.11L339.22 150.11Q348.06 141.49 352.15 134.64L352.15 134.64L352.15 134.64Q356.24 127.79 356.24 120.50L356.24 120.50L356.24 120.50Q356.24 112.32 351.60 108.45L351.60 108.45L351.60 108.45Q346.96 104.58 336.35 104.58L336.35 104.58L289.72 104.58L289.72 74.31L289.72 74.31Q304.97 71.43 316.90 69.89L316.90 69.89L316.90 69.89Q328.84 68.34 343.64 68.34L343.64 68.34L343.64 68.34Q371.49 68.34 382.98 79.72L382.98 79.72L382.98 79.72Q394.47 91.10 394.47 113.87L394.47 113.87L394.47 113.87Q394.47 129.56 388.39 141.71L388.39 141.71L388.39 141.71Q382.32 153.87 369.28 166.91L369.28 166.91L337.01 199.39L399.11 199.39L399.11 233.65L286.62 233.65ZM439.34 233.65L439.34 104.58L411.93 106.35L411.93 82.04L443.76 68.34L477.57 68.34L477.57 233.65L439.34 233.65ZM513.37 233.65L558.68 107.90L493.70 107.90L493.70 69.67L598.46 69.67L607.96 85.36L555.80 233.65L513.37 233.65ZM683.10 233.65L683.10 201.38L613.26 201.38L606.41 183.92L656.58 69.67L695.47 69.67L651.72 168.90L683.10 168.90L683.10 141.05L690.39 120.94L721.33 120.94L721.33 168.90L736.14 168.90L736.14 195.42L721.33 201.38L721.33 233.65L683.10 233.65ZM800.89 234.97L800.89 234.97Q776.36 234.97 758.90 230.78L758.90 230.78L758.90 200.72L796.69 200.72L796.69 200.72Q812.16 200.72 819.12 192.10L819.12 192.10L819.12 192.10Q826.09 183.48 826.09 166.46L826.09 166.46L826.09 166.46Q819.23 168.90 811.61 169.78L811.61 169.78L811.61 169.78Q803.99 170.66 792.05 170.66L792.05 170.66L792.05 170.66Q768.40 170.66 758.79 160.50L758.79 160.50L758.79 160.50Q749.18 150.33 749.18 131.77L749.18 131.77L749.18 108.12L749.18 108.12Q749.18 87.79 760.12 78.18L760.12 78.18L760.12 78.18Q771.06 68.56 790.50 68.56L790.50 68.56L813.71 68.56L813.71 68.56Q831.39 68.56 842.22 75.52L842.22 75.52L842.22 75.52Q853.05 82.48 858.57 99.94L858.57 99.94L858.57 99.94Q864.10 117.40 864.10 148.56L864.10 148.56L864.10 148.56Q864.10 180.83 856.80 199.84L856.80 199.84L856.80 199.84Q849.51 218.84 835.70 226.91L835.70 226.91L835.70 226.91Q821.89 234.97 800.89 234.97L800.89 234.97ZM802.88 138.18L826.09 138.18L826.09 138.18Q826.09 124.25 824.10 116.63L824.10 116.63L824.10 116.63Q822.11 109.00 817.80 105.91L817.80 105.91L817.80 105.91Q813.49 102.82 805.97 102.82L805.97 102.82L799.34 102.82L799.34 102.82Q793.16 102.82 790.28 106.02L790.28 106.02L790.28 106.02Q787.41 109.23 787.41 116.08L787.41 116.08L787.41 124.25L787.41 124.25Q787.41 132.43 790.73 135.30L790.73 135.30L790.73 135.30Q794.04 138.18 802.88 138.18L802.88 138.18ZM955.37 234.97L955.37 234.97Q944.76 234.97 937.47 231.88L937.47 231.88L937.47 231.88Q930.18 228.79 922.66 222.60L922.66 222.60L916.47 233.65L884.43 233.65L884.43 65.03L922.66 65.03L922.66 122.04L922.66 122.04Q929.96 118.07 938.13 115.41L938.13 115.41L938.13 115.41Q946.31 112.76 953.60 112.76L953.60 112.76L953.60 112.76Q969.29 112.76 978.35 119.17L978.35 119.17L978.35 119.17Q987.42 125.58 991.50 139.28L991.50 139.28L991.50 139.28Q995.59 152.98 995.59 175.53L995.59 175.53L995.59 175.53Q995.59 206.02 985.65 220.50L985.65 220.50L985.65 220.50Q975.70 234.97 955.37 234.97L955.37 234.97ZM940.78 204.03L940.78 204.03Q948.52 204.03 952.94 197.52L952.94 197.52L952.94 197.52Q957.36 191.00 957.36 173.54L957.36 173.54L957.36 173.54Q957.36 160.72 955.04 154.09L955.04 154.09L955.04 154.09Q952.72 147.46 949.18 145.47L949.18 145.47L949.18 145.47Q945.65 143.48 940.78 143.48L940.78 143.48L940.78 143.48Q935.92 143.48 930.95 145.14L930.95 145.14L930.95 145.14Q925.98 146.80 922.66 148.78L922.66 148.78L922.66 199.61L922.66 199.61Q931.06 204.03 940.78 204.03L940.78 204.03Z" fill="#FFFFFF"/></svg>