<svg xmlns="http://www.w3.org/2000/svg" width="1500" height="800"><rect x="0" y="0" width="1500" height="800" fill="#222222"/><path d="M139.21 784.73L139.21 15.27L318.61 15.27L318.61 322.23L574.75 322.23L574.75 15.27L754.15 15.27L754.15 784.73L574.75 784.73L574.75 482.96L318.61 482.96L318.61 784.73L139.21 784.73ZM876.51 784.73L876.51 15.27L1209.39 15.27L1209.39 15.27Q1360.79 15.27 1421.98 116.38L1421.98 116.38L1421.98 116.38Q1483.16 217.49 1483.16 401.04L1483.16 401.04L1483.16 401.04Q1483.16 598.07 1415.75 691.40L1415.75 691.40L1415.75 691.40Q1348.35 784.73 1209.39 784.73L1209.39 784.73L876.51 784.73ZM1055.91 623.99L1191.76 623.99L1191.76 623.99Q1253.98 623.99 1279.39 571.11L1279.39 571.11L1279.39 571.11Q1304.80 518.22 1304.80 401.04L1304.80 401.04L1304.80 401.04Q1304.80 308.74 1291.83 260.00L1291.83 260.00L1291.83 260.00Q1278.87 211.27 1255.02 193.64L1255.02 193.64L1255.02 193.64Q1231.17 176.01 1191.76 176.01L1191.76 176.01L1055.91 176.01L1055.91 623.99Z" fill="#FFFFFF"/></svg>